<?xml version="1.0" encoding="UTF-8"?> <svg xmlns="http://www.w3.org/2000/svg" width="1033" height="1039" viewBox="0 0 1033 1039" fill="none"> <path d="M4 811C18 565 112.8 59.4 380 5L968 175C986.667 183.667 1024.8 218.2 1028 287C1006 252.333 937.2 208.6 838 311C714 439 610 647 572 1033L80 853L512 947C544.667 745 658.4 311.4 852 193L422 83C383.333 80.3333 289.2 107.4 222 237C172.667 305 60 515 4 811Z" fill="#292929"></path> <path d="M304 213C329.333 185 382.4 129 392 129C401.6 129 625.333 185 736 213C717.333 231 676.4 273.4 662 299L304 213Z" fill="#292929"></path> <path d="M4 811C18 565 112.8 59.4 380 5L968 175C986.667 183.667 1024.8 218.2 1028 287C1006 252.333 937.2 208.6 838 311C714 439 610 647 572 1033L80 853L512 947C544.667 745 658.4 311.4 852 193L422 83C383.333 80.3333 289.2 107.4 222 237C172.667 305 60 515 4 811Z" stroke="#FFCB2E" stroke-width="8"></path> <path d="M304 213C329.333 185 382.4 129 392 129C401.6 129 625.333 185 736 213C717.333 231 676.4 273.4 662 299L304 213Z" stroke="#FFCB2E" stroke-width="8"></path> <path d="M269 281L244 333L274 341L299 290L269 281Z" fill="#292929" stroke="#FFCB2E" stroke-width="8"></path> <path d="M434 326L409 378L439 386L464 335L434 326Z" fill="#292929" stroke="#FFCB2E" stroke-width="8"></path> <path d="M231 371L206 423L236 431L261 380L231 371Z" fill="#292929" stroke="#FFCB2E" stroke-width="8"></path> <path d="M193 467L168 519L198 527L223 476L193 467Z" fill="#292929" stroke="#FFCB2E" stroke-width="8"></path> <path d="M144 613L124 666L154 674L173 623L144 613Z" fill="#292929" stroke="#FFCB2E" stroke-width="8"></path> <path d="M201 628L181 681L211 689L230 638L201 628Z" fill="#292929" stroke="#FFCB2E" stroke-width="8"></path> <path d="M260 644L240 697L270 705L289 654L260 644Z" fill="#292929" stroke="#FFCB2E" stroke-width="8"></path> <path d="M105 711L92 765L453 878L467 812L105 711Z" fill="#292929" stroke="#FFCB2E" stroke-width="8"></path> <path d="M324 295L299 347L329 355L354 304L324 295Z" fill="#292929" stroke="#FFCB2E" stroke-width="8"></path> <path d="M489 340L464 392L494 400L519 349L489 340Z" fill="#292929" stroke="#FFCB2E" stroke-width="8"></path> <path d="M286 385L261 437L291 445L316 394L286 385Z" fill="#292929" stroke="#FFCB2E" stroke-width="8"></path> <path d="M248 481L223 533L253 541L278 490L248 481Z" fill="#292929" stroke="#FFCB2E" stroke-width="8"></path> <path d="M379 311L354 363L384 371L409 320L379 311Z" fill="#292929" stroke="#FFCB2E" stroke-width="8"></path> <path d="M544 356L519 408L549 416L574 365L544 356Z" fill="#292929" stroke="#FFCB2E" stroke-width="8"></path> <path d="M341 401L316 453L346 461L371 410L341 401Z" fill="#292929" stroke="#FFCB2E" stroke-width="8"></path> <path d="M303 497L278 549L308 557L333 506L303 497Z" fill="#292929" stroke="#FFCB2E" stroke-width="8"></path> <path d="M352 511L327 563L357 571L382 520L352 511Z" fill="#292929" stroke="#FFCB2E" stroke-width="8"></path> </svg> 